<?xml version="1.0" standalone="no"?>
<!DOCTYPE svg PUBLIC "-//W3C//DTD SVG 20010904//EN"
 "http://www.w3.org/TR/2001/REC-SVG-20010904/DTD/svg10.dtd">
<svg version="1.0" xmlns="http://www.w3.org/2000/svg"
 width="500.000000pt" height="500.000000pt" viewBox="0 0 500.000000 500.000000"
 preserveAspectRatio="xMidYMid meet">

<g transform="translate(0.000000,500.000000) scale(0.100000,-0.100000)"
fill="#000000" stroke="none">
<path d="M2127 3580 c-162 -43 -316 -137 -452 -275 -86 -87 -108 -117 -157
-211 -32 -61 -65 -139 -74 -175 -22 -82 -23 -245 -1 -315 52 -172 170 -296
331 -346 60 -19 94 -23 216 -23 227 1 333 37 409 142 54 74 55 86 56 393 0
157 -2 385 -5 507 l-5 222 -39 40 c-61 63 -149 76 -279 41z m214 -65 c54 -29
54 -24 57 -518 3 -512 1 -533 -60 -596 -74 -76 -196 -106 -408 -99 -98 3 -137
9 -180 26 -113 45 -194 129 -242 252 -28 73 -31 226 -5 320 21 78 74 192 119
257 41 61 169 190 229 230 93 64 239 123 359 146 37 7 98 -1 131 -18z"/>
<path d="M2090 3430 c-131 -28 -293 -156 -321 -255 -40 -144 12 -278 137 -351
59 -35 114 -107 114 -149 0 -18 -9 -43 -19 -56 -17 -21 -28 -24 -85 -24 -62 0
-68 3 -101 35 -27 28 -37 48 -45 95 -13 71 -36 95 -90 95 -63 0 -84 -25 -88
-108 -8 -130 53 -241 163 -297 58 -30 59 -30 229 -30 195 0 237 9 287 59 47
49 57 85 58 211 1 129 -9 155 -63 155 -60 0 -74 -50 -20 -70 26 -10 26 -11 22
-98 -7 -161 -41 -188 -249 -198 -74 -4 -156 -4 -181 0 -102 15 -188 125 -188
239 0 54 16 83 40 75 6 -2 21 -33 33 -68 37 -108 102 -160 203 -160 54 0 92
18 128 60 33 40 36 109 6 158 -11 18 -20 35 -20 37 0 3 17 5 38 5 82 1 182 72
229 164 21 42 24 60 21 116 -5 88 -35 135 -109 173 -132 66 -290 5 -329 -129
-10 -32 -10 -46 0 -63 16 -31 44 -23 48 14 8 90 68 146 160 153 47 3 63 0 91
-20 98 -67 107 -177 22 -271 -88 -97 -233 -103 -339 -12 -51 45 -72 90 -72
159 0 123 114 249 268 296 86 27 138 25 198 -5 64 -32 76 -32 72 2 -4 39 -52
63 -135 68 -37 2 -88 0 -113 -5z"/>
<path d="M2632 3579 c-24 -12 -55 -37 -70 -57 l-27 -35 0 -1425 c0 -1337 1
-1425 17 -1436 11 -7 21 -7 27 -1 5 6 11 584 13 1428 l5 1418 23 24 c32 35 84
47 150 36 169 -28 333 -122 476 -273 163 -174 244 -384 231 -602 -8 -142 -44
-224 -130 -293 -46 -39 -55 -40 -59 -10 -2 16 -10 22 -28 22 -20 0 -26 -6 -28
-27 -5 -42 -27 -52 -108 -53 -80 0 -107 -13 -88 -43 13 -21 45 -30 108 -31 47
-1 49 -2 32 -20 -25 -28 -101 -47 -131 -33 -14 7 -25 20 -25 31 0 25 -14 34
-40 26 -24 -8 -34 -38 -20 -65 28 -52 134 -69 206 -32 39 20 94 79 94 101 0 5
26 24 57 42 159 91 230 238 220 454 -6 129 -22 195 -81 326 -56 124 -87 168
-194 277 -152 154 -385 272 -537 272 -31 0 -66 -8 -93 -21z"/>
<path d="M2740 3460 c-42 -12 -69 -33 -80 -64 -13 -38 -13 -390 1 -439 18 -68
108 -90 117 -29 2 15 -6 25 -27 37 l-31 16 0 194 c0 163 3 196 16 209 19 19
35 20 57 4 16 -13 25 -118 26 -316 1 -63 1 -63 29 -60 26 3 27 6 33 73 7 101
58 165 129 165 72 0 118 -51 123 -136 l2 -47 -60 2 c-49 2 -67 -2 -95 -21 -37
-25 -49 -62 -31 -96 9 -17 6 -20 -35 -26 -96 -13 -194 -79 -237 -160 -21 -40
-22 -54 -25 -387 -2 -220 1 -355 7 -372 6 -15 27 -37 46 -48 l35 -21 0 -399
c0 -392 0 -398 21 -409 46 -25 47 -18 41 409 l-5 399 34 30 34 30 3 228 c2
126 7 233 13 240 5 6 52 14 105 17 155 10 245 66 302 187 51 108 27 252 -54
331 -30 29 -34 39 -34 82 0 73 -19 123 -63 167 -67 67 -156 74 -227 18 l-25
-20 -6 74 c-4 41 -11 83 -17 94 -18 34 -78 56 -122 44z m376 -458 c6 -4 14
-19 18 -34 5 -20 13 -28 29 -28 13 0 28 5 33 10 14 14 26 -2 49 -62 38 -102 0
-243 -81 -300 -38 -28 -49 -30 -160 -35 -126 -6 -164 -18 -186 -56 -9 -15 -15
-92 -18 -252 l-5 -230 -26 -3 c-49 -6 -50 1 -47 365 l3 340 28 40 c59 85 189
123 299 88 30 -9 66 -15 79 -13 47 6 31 68 -18 68 -37 0 -113 48 -113 71 0 30
84 53 116 31z"/>
<path d="M3416 2284 c-22 -66 -85 -145 -149 -187 -71 -47 -94 -56 -196 -73
-91 -15 -133 -34 -165 -77 -20 -26 -21 -43 -24 -239 -4 -239 -1 -261 31 -256
22 3 22 5 28 223 5 217 10 247 43 274 8 7 58 19 111 27 118 18 179 47 261 126
94 90 149 219 98 226 -18 3 -25 -5 -38 -44z"/>
</g>
</svg>
